<?xml version="1.0" standalone="no"?>
<!DOCTYPE svg PUBLIC "-//W3C//DTD SVG 20010904//EN"
 "http://www.w3.org/TR/2001/REC-SVG-20010904/DTD/svg10.dtd">
<svg version="1.0" xmlns="http://www.w3.org/2000/svg"
 width="259.000000pt" height="285.000000pt" viewBox="0 0 259.000000 285.000000"
 preserveAspectRatio="xMidYMid meet">

<g transform="translate(0.000000,285.000000) scale(0.100000,-0.100000)"
fill="#000000" stroke="none">
<path d="M995 2814 c-215 -33 -460 -127 -570 -218 l-30 -25 47 -1 c67 0 142
-18 225 -52 l72 -30 78 17 c117 25 328 31 438 12 165 -29 351 -104 493 -198
80 -53 228 -192 288 -272 216 -287 306 -670 234 -992 -31 -143 -103 -304 -200
-454 -33 -51 -59 -95 -58 -97 7 -6 139 114 196 179 153 173 255 383 297 606
19 105 19 316 0 441 -65 434 -316 769 -724 971 -109 53 -220 90 -340 113 -103
20 -320 20 -446 0z"/>
<path d="M358 2493 c-21 -2 -38 -8 -38 -14 0 -5 4 -9 8 -9 18 0 94 -74 111
-109 10 -20 24 -61 31 -91 7 -30 21 -72 32 -93 l19 -38 -56 -62 c-77 -87 -123
-207 -266 -702 -28 -99 -62 -201 -75 -227 -13 -26 -24 -60 -24 -75 0 -76 64
-233 121 -297 33 -38 33 -38 93 -32 32 3 84 17 114 31 l54 25 -4 57 -5 57 101
110 c163 178 339 353 363 360 12 4 50 10 85 14 l62 7 48 70 c77 113 102 183
102 290 1 78 -3 98 -27 149 -15 32 -43 81 -63 108 -19 28 -33 52 -30 55 8 8
77 -37 124 -81 114 -108 140 -280 67 -459 l-23 -58 31 -67 c25 -52 32 -80 31
-127 0 -102 -29 -140 -234 -305 -165 -133 -221 -191 -295 -305 -66 -102 -100
-181 -130 -300 -23 -91 -50 -319 -39 -336 14 -24 250 -2 449 41 213 46 444
142 610 252 168 111 332 305 406 479 69 162 89 258 96 464 6 182 -6 283 -49
410 -149 446 -619 766 -1121 765 -76 0 -221 -21 -233 -33 -2 -2 8 -32 22 -67
27 -67 47 -229 27 -217 -6 4 -13 25 -17 48 -19 116 -125 249 -232 288 -57 22
-173 33 -246 24z m301 -610 c11 -10 24 -32 27 -50 5 -27 1 -37 -24 -63 -34
-34 -81 -40 -103 -14 -11 13 -8 26 19 80 34 67 47 75 81 47z m-388 -774 c37
-26 56 -86 39 -119 l-12 -23 -14 31 c-12 28 -18 32 -53 32 -30 0 -43 5 -51 19
-14 28 -13 38 10 61 25 25 45 25 81 -1z"/>
</g>
</svg>
